{
  "accessors": [
    {
      "bufferView": 2,
      "componentType": 5126,
      "count": 22910,
      "max": [
        13.942933082580566,
        10.586338996887207,
        0.5466453433036804
      ],
      "min": [
        -5.837543487548828,
        -8.995314598083496,
        -7.791114330291748
      ],
      "type": "VEC3"
    },
    {
      "bufferView": 2,
      "byteOffset": 274920,
      "componentType": 5126,
      "count": 22910,
      "max": [
        0.9999995231628418,
        0.9999997615814209,
        1.0
      ],
      "min": [
        -1.0,
        -1.0,
        -1.0
      ],
      "type": "VEC3"
    },
    {
      "bufferView": 3,
      "componentType": 5126,
      "count": 22910,
      "max": [
        0.9999843835830688,
        0.9991191625595093,
        0.9999999403953552,
        1.0
      ],
      "min": [
        -0.9999439716339111,
        -0.9994311332702637,
        -0.9999991059303284,
        -1.0
      ],
      "type": "VEC4"
    },
    {
      "bufferView": 1,
      "componentType": 5126,
      "count": 22910,
      "max": [
        0.9997149705886841,
        0.9665526151657104
      ],
      "min": [
        0.000244140625,
        0.0002443386474624276
      ],
      "type": "VEC2"
    },
    {
      "bufferView": 0,
      "componentType": 5125,
      "count": 83478,
      "type": "SCALAR"
    }
  ],
  "asset": {
    "extras": {
      "author": "3156675868 (https://sketchfab.com/3156675868)",
      "license": "CC-BY-4.0 (http://creativecommons.org/licenses/by/4.0/)",
      "source": "https://sketchfab.com/3d-models/brackets-9ac0f880d6d44b46a6dfdbd30caafb25",
      "title": "Brackets"
    },
    "generator": "Sketchfab-16.65.0",
    "version": "2.0"
  },
  "bufferViews": [
    {
      "buffer": 0,
      "byteLength": 333912,
      "name": "floatBufferViews",
      "target": 34963
    },
    {
      "buffer": 0,
      "byteLength": 183280,
      "byteOffset": 333912,
      "byteStride": 8,
      "name": "floatBufferViews",
      "target": 34962
    },
    {
      "buffer": 0,
      "byteLength": 549840,
      "byteOffset": 517192,
      "byteStride": 12,
      "name": "floatBufferViews",
      "target": 34962
    },
    {
      "buffer": 0,
      "byteLength": 366560,
      "byteOffset": 1067032,
      "byteStride": 16,
      "name": "floatBufferViews",
      "target": 34962
    }
  ],
  "buffers": [
    {
      "byteLength": 1433592,
      "uri": "scene.bin"
    }
  ],
  "images": [
    {
      "uri": "textures/DGJ.1001_baseColor.png"
    },
    {
      "uri": "textures/DGJ.1001_normal.png"
    }
  ],
  "materials": [
    {
      "doubleSided": true,
      "name": "DGJ.1001",
      "normalTexture": {
        "index": 1
      },
      "pbrMetallicRoughness": {
        "baseColorTexture": {
          "index": 0
        },
        "metallicFactor": 0.0,
        "roughnessFactor": 0.9831820716949257
      }
    }
  ],
  "meshes": [
    {
      "name": "DGJ_DGJ.1001_0",
      "primitives": [
        {
          "attributes": {
            "NORMAL": 1,
            "POSITION": 0,
            "TANGENT": 2,
            "TEXCOORD_0": 3
          },
          "indices": 4,
          "material": 0,
          "mode": 4
        }
      ]
    }
  ],
  "nodes": [
    {
      "children": [
        1
      ],
      "matrix": [
        1.0,
        0.0,
        0.0,
        0.0,
        0.0,
        2.220446049250313e-16,
        -1.0,
        0.0,
        0.0,
        1.0,
        2.220446049250313e-16,
        0.0,
        0.0,
        0.0,
        0.0,
        1.0
      ],
      "name": "Sketchfab_model"
    },
    {
      "children": [
        2
      ],
      "matrix": [
        1.0,
        0.0,
        0.0,
        0.0,
        0.0,
        0.0,
        1.0,
        0.0,
        0.0,
        -1.0,
        0.0,
        0.0,
        0.0,
        0.0,
        0.0,
        1.0
      ],
      "name": "DGJ.fbx"
    },
    {
      "children": [
        3
      ],
      "name": "RootNode"
    },
    {
      "children": [
        4
      ],
      "matrix": [
        1.0,
        0.0,
        0.0,
        0.0,
        0.0,
        2.220446049250313e-16,
        -1.0,
        0.0,
        0.0,
        1.0,
        2.220446049250313e-16,
        0.0,
        0.0,
        0.0,
        0.0,
        1.0
      ],
      "name": "DGJ"
    },
    {
      "mesh": 0,
      "name": "DGJ_DGJ.1001_0"
    }
  ],
  "samplers": [
    {
      "magFilter": 9729,
      "minFilter": 9987,
      "wrapS": 10497,
      "wrapT": 10497
    }
  ],
  "scene": 0,
  "scenes": [
    {
      "name": "Sketchfab_Scene",
      "nodes": [
        0
      ]
    }
  ],
  "textures": [
    {
      "sampler": 0,
      "source": 0
    },
    {
      "sampler": 0,
      "source": 1
    }
  ]
}
